<svg
  width="256"
  height="256"
  viewBox="0 0 256 256"
  fill="none"
  xmlns="http://www.w3.org/2000/svg"
>
  <rect width="256" height="256" rx="64" fill="#FBF4EA" />
  <rect
    x="24"
    y="24"
    width="208"
    height="208"
    rx="48"
    stroke="#D6C2AE"
    stroke-width="2"
  />
  <path
    d="M78 78H178"
    stroke="#A05E43"
    stroke-width="8"
    stroke-linecap="round"
  />
  <path
    d="M78 112H164"
    stroke="#A05E43"
    stroke-opacity="0.88"
    stroke-width="8"
    stroke-linecap="round"
  />
  <path
    d="M78 146H150"
    stroke="#A05E43"
    stroke-opacity="0.76"
    stroke-width="8"
    stroke-linecap="round"
  />
  <path
    d="M82 188C98 202 112 208 132 208C169 208 194 181 194 144C194 111 171 88 138 88C100 88 76 113 76 146C76 160 79 174 82 188Z"
    fill="#A05E43"
    fill-opacity="0.1"
  />
  <path
    d="M123.767 173.096C105.246 173.096 91.84 160.968 91.84 141.648C91.84 121.656 105.448 109.528 123.767 109.528C135.022 109.528 144.734 114.17 149.981 122.27L138.12 130.37C135.022 125.851 130.117 123.157 123.9 123.157C113.25 123.157 106.105 130.965 106.105 141.648C106.105 152.331 113.25 160.139 124.03 160.139C129.58 160.139 133.945 158.657 137.243 155.447V147.145H123.765V135.017H150.782V161.081C144.032 169.598 135.022 173.096 123.767 173.096Z"
    fill="#A05E43"
  />
</svg>
